<svg width="120" height="131" viewBox="0 0 120 131" fill="none" xmlns="http://www.w3.org/2000/svg">
<path d="M40.1772 44.9969L57.391 6.79074C58.4321 4.48004 61.6919 4.42146 62.8154 6.69327L81.8418 45.1689C82.2713 46.0376 82.944 46.7627 83.778 47.256L113.414 64.7872C115.427 65.9777 115.364 68.9109 113.302 70.0143L83.8455 85.7799C82.9685 86.2493 82.2514 86.9696 81.786 87.8488L62.7759 123.757C61.6251 125.93 58.4911 125.872 57.4225 123.656L40.2348 88.0235C39.7582 87.0353 38.9698 86.2314 37.9912 85.7355L7.02048 70.0437C4.87904 68.9587 4.81601 65.923 6.91057 64.7501L38.0616 47.3055C38.9958 46.7824 39.7374 45.9731 40.1772 44.9969Z" fill="#FFB8CE"/>
<path fill-rule="evenodd" clip-rule="evenodd" d="M40.1756 45.0006C39.736 45.974 38.9964 46.7811 38.0649 47.3037L39.5 46.5L40.1756 45.0006ZM62.674 6.40743C61.607 4.24968 58.5108 4.30531 57.522 6.5C57.522 6.5 60 3 60.1209 6.5L60.0604 64.75L60 123C60 128.5 57.1059 123 57.1059 123L57.4225 123.656C58.4911 125.872 61.6251 125.93 62.7759 123.757L63.1765 123L81.786 87.8487C82.2514 86.9696 82.9685 86.2493 83.8455 85.7799L112 70.7113L113.302 70.0143C115.364 68.9109 115.427 65.9777 113.414 64.7872L112 63.9507L83.778 47.256C82.944 46.7627 82.2713 46.0376 81.8418 45.1689L62.7198 6.5L62.674 6.40743ZM40.2348 88.0234V88.0234C39.7589 87.0366 38.9705 86.2317 37.9932 85.7366V85.7366C38.9709 86.2325 39.7585 87.036 40.2348 88.0234ZM7 70.0333C4.88176 68.0033 4.845 66.8365 7 64.7L6.89053 64.7613C4.80452 65.9295 4.86729 68.9528 7 70.0333Z" fill="#FFFFFC"/>
<path d="M60.1209 6.5C60 3 57.522 6.5 57.522 6.5L40.1772 44.9969L40.1756 45.0006L39.5 46.5L60.0604 64.75L60.1209 6.5Z" fill="#FFFFFC"/>
<path fill-rule="evenodd" clip-rule="evenodd" d="M40.1756 45.0006C39.736 45.974 38.9964 46.7811 38.0649 47.3037L39.5 46.5L40.1756 45.0006ZM62.674 6.40743C61.607 4.24968 58.5108 4.30531 57.522 6.5C57.522 6.5 60 3 60.1209 6.5L60.0604 64.75L60 123C60 128.5 57.1059 123 57.1059 123L57.4225 123.656C58.4911 125.872 61.6251 125.93 62.7759 123.757L63.1765 123L81.786 87.8487C82.2514 86.9696 82.9685 86.2493 83.8455 85.7799L112 70.7113L113.302 70.0143C115.364 68.9109 115.427 65.9777 113.414 64.7872L112 63.9507L83.778 47.256C82.944 46.7627 82.2713 46.0376 81.8418 45.1689L62.7198 6.5L62.674 6.40743ZM40.2348 88.0234V88.0234C39.7589 87.0366 38.9705 86.2317 37.9932 85.7366V85.7366C38.9709 86.2325 39.7585 87.036 40.2348 88.0234ZM7 70.0333C4.88176 68.0033 4.845 66.8365 7 64.7L6.89053 64.7613C4.80452 65.9295 4.86729 68.9528 7 70.0333Z" fill="#4C9EFF"/>
<path d="M81.786 88.0277V88.0277C82.2514 87.1485 82.9685 86.4282 83.8455 85.9588V85.9588L91.5 81.862L60.0604 64.9289L79.5882 92.1789L81.786 88.0277Z" fill="#FFB8CE"/>
<path d="M81.786 88.0277V88.0277C82.2514 87.1485 82.9685 86.4282 83.8455 85.9588V85.9588L91.5 81.862L60.0604 64.9289L79.5882 92.1789L81.786 88.0277Z" fill="#FFB8CE"/>
<path d="M60 123.179H63.1765L79.5882 92.1789L60.0604 64.9289L60 123.179Z" fill="#4C73FF"/>
<path d="M37.9932 85.9155C38.97 86.4104 39.7547 87.2157 40.2242 88.2049L42.5 93L54.9203 70.3664L34 83.5L37.9932 85.9155V85.9155Z" fill="#FFF7D2"/>
<path d="M55.1117 5.76378L37.8979 43.9699C37.678 44.458 37.3072 44.8627 36.8401 45.1243L5.68906 62.5688L6.86519 64.6691L5.68906 62.5688C1.84905 64.7192 1.96458 70.2846 5.89057 72.2738L36.8613 87.9656C37.3506 88.2135 37.7448 88.6155 37.9831 89.1096L55.1707 124.742C57.1298 128.804 62.8755 128.912 64.9854 124.926L83.9954 89.0185C84.2281 88.5789 84.5867 88.2187 85.0252 87.984L114.482 72.2184C118.262 70.1955 118.377 64.8181 114.687 62.6355L85.0509 45.1043C84.6339 44.8576 84.2975 44.4951 84.0828 44.0608L65.0563 5.5851C62.9967 1.42011 57.0203 1.52751 55.1117 5.76378Z" stroke="#CFBD93" stroke-width="5"/>
</svg>
