<svg width="118" height="129" viewBox="0 0 118 129" fill="none" xmlns="http://www.w3.org/2000/svg">
<path fill-rule="evenodd" clip-rule="evenodd" d="M38.7952 44.8873C38.5802 45.3647 38.2175 45.7604 37.7607 46.0162V46.0162C38.2175 45.7604 38.5802 45.3647 38.7952 44.8873V44.8873ZM37.729 85.2116C38.2063 85.4541 38.5908 85.8467 38.8234 86.3289V86.3289C38.5912 85.8475 38.2058 85.4531 37.729 85.2116V85.2116ZM81.075 86.2411C81.3026 85.8123 81.6528 85.461 82.0808 85.2319V85.2319C81.6535 85.4606 81.3018 85.8128 81.075 86.2411V86.2411ZM82.0474 45.9917C81.6407 45.751 81.3124 45.3976 81.1024 44.9742V44.9742C81.3116 45.3971 81.6413 45.7515 82.0474 45.9917V45.9917Z" fill="#FFB8CE"/>
<path d="M57.6687 2.99746L54.8687 9.21207L38.7952 44.8873V44.8873C38.5802 45.3647 38.2175 45.7604 37.7607 46.0162V46.0162L3.40118 65.2575C2.37698 65.8311 2.4078 67.3155 3.45493 67.846L37.7263 85.2102L37.729 85.2116V85.2116C38.2058 85.4531 38.5912 85.8475 38.8234 86.3289V86.3289L57.6841 125.43C58.2066 126.514 59.7391 126.542 60.3018 125.479L81.0737 86.2435L81.075 86.2411V86.2411C81.3018 85.8128 81.6535 85.4606 82.0808 85.2319V85.2319L114.592 67.8316C115.6 67.2921 115.631 65.8578 114.646 65.2757L82.0478 45.992L82.0474 45.9917V45.9917C81.6413 45.7515 81.3116 45.3971 81.1024 44.9742V44.9742L81.101 44.9714L63.4178 9.21207L60.3211 2.94981C59.7718 1.83893 58.1778 1.86757 57.6687 2.99746Z" fill="#FFB8CE"/>
<path fill-rule="evenodd" clip-rule="evenodd" d="M39.139 44.1243C38.6999 45.0968 37.9609 45.9031 37.0303 46.4252L38.4641 45.6223L39.139 44.1243ZM61.6159 5.56811C60.5499 3.41243 57.4567 3.46801 56.4688 5.66059C56.6523 2.07642 59.3399 -3.37268 59.0652 5.66059L59.0048 63.8548L58.9444 122.049C58.9444 127.544 59.6779 123.39 59.6779 123.39V124.612C60.7455 126.825 60.5679 124.977 61.7177 122.805L62.1179 122.049L80.7095 86.9314C81.1745 86.0531 81.8909 85.3335 82.7671 84.8645L110.895 69.8103L112.196 69.114C114.255 68.0117 114.318 65.0813 112.307 63.892L110.895 63.0563L82.6997 46.3776C81.8665 45.8847 81.1944 45.1603 80.7653 44.2925L61.6616 5.66059L61.6159 5.56811ZM39.1982 87.1059L38.8234 86.3289C38.5903 85.8457 38.2048 85.4526 37.7263 85.2101L36.9587 84.8212C37.9355 85.3167 38.7224 86.1194 39.1982 87.1059ZM5.99521 69.1331C3.879 67.105 3.84228 65.9393 5.99521 63.8048L5.88585 63.8661C3.80183 65.0331 3.86454 68.0535 5.99521 69.1331Z" fill="#FFFFFC"/>
<path d="M59.0652 5.66059C59.3399 -3.37268 56.6523 2.07642 56.4688 5.66059L39.1407 44.1206L39.139 44.1243L38.4641 45.6223L59.0048 63.8548L59.0652 5.66059Z" fill="#FFFFFC"/>
<path fill-rule="evenodd" clip-rule="evenodd" d="M39.139 44.29C38.6999 45.2625 37.9609 46.0688 37.0303 46.5909L38.4641 45.788L39.139 44.29ZM61.6159 5.73381C61.2908 3.43108 58.205 -1.96119 58.7 1.06521C58.7 1.06521 58.8858 2.10832 59.0048 2.7767C59.0048 26.6939 59.0048 64.0205 59.0048 64.0205L58.9444 122.215C58.9444 127.709 59.797 124.044 59.797 124.044L59.6779 123.8C60.7455 126.013 60.5679 125.142 61.7177 122.971L62.1179 122.215L80.7095 87.0971C81.1745 86.2188 81.8909 85.4991 82.7671 85.0302L110.895 69.976L112.196 69.2797C117.133 68.3002 118.356 66.3443 112.307 64.0577L110.895 63.222L82.6997 46.5433C81.8665 46.0504 81.1944 45.326 80.7653 44.4582L61.6616 5.82629L61.6159 5.73381ZM39.1982 87.2716L38.8234 86.4946C38.5903 86.0114 38.2048 85.6183 37.7263 85.3758L36.9587 84.9869C37.9355 85.4824 38.7224 86.2851 39.1982 87.2716ZM5.99521 69.2987C3.879 67.2707 3.84228 66.105 5.99521 63.9705L5.88585 64.0318C3.80183 65.1988 3.86454 68.2192 5.99521 69.2987Z" fill="#4C9EFF"/>
<path d="M80.7095 87.1102L81.0737 86.4223C81.3013 85.9924 81.652 85.6402 82.0808 85.4106L82.7671 85.0433L90.4143 80.9505L59.0048 64.0336L78.5139 91.2575L80.7095 87.1102Z" fill="#FFB8CE"/>
<path d="M80.7095 87.1102L81.0737 86.4223C81.3013 85.9924 81.652 85.6402 82.0808 85.4106L82.7671 85.0433L90.4143 80.9505L59.0048 64.0336L78.5139 91.2575L80.7095 87.1102Z" fill="#FFB8CE"/>
<path d="M58.9444 122.228H62.1179L78.5139 91.2575L59.0048 64.0336L58.9444 122.228Z" fill="#4C73FF"/>
<path d="M80.7095 87.1101L81.0737 86.4222C81.3013 85.9923 81.652 85.6401 82.0808 85.4105L82.7671 85.0432L90.4143 80.9504L59.0048 64.0335L78.5139 91.2574L80.7095 87.1101Z" fill="#FFB8CE"/>
<path d="M58.9444 122.228V128.222L62.1179 122.228L78.5139 91.2574L59.0048 64.0335L58.9444 122.228Z" fill="#4C73FF"/>
<path d="M37.7186 85.3851C38.2019 85.6299 38.5901 86.0283 38.8224 86.5177L41.4612 92.0778L53.8696 69.4659L32.9693 82.5869L36.9587 85.0001L37.7186 85.3851Z" fill="#FFF7D2"/>
<path d="M56.7569 2.58668L37.8835 44.4765C37.7564 44.7586 37.5421 44.9925 37.2721 45.1437L2.91258 64.385C1.19019 65.3496 1.24202 67.8459 3.00296 68.7381L37.2743 86.1022C37.5571 86.2455 37.785 86.4778 37.9227 86.7634L56.7834 125.865C57.6621 127.687 60.2392 127.735 61.1856 125.947L81.9575 86.7114C82.092 86.4573 82.2993 86.2492 82.5527 86.1135L115.064 68.7133C116.759 67.806 116.811 65.394 115.156 64.415L82.557 45.1313C82.3159 44.9887 82.1216 44.7792 81.9974 44.5282L61.2175 2.50654C60.2937 0.638401 57.613 0.68655 56.7569 2.58668Z" stroke="#212222" stroke-width="2"/>
</svg>
