<svg width="533" height="533" viewBox="0 0 533 533" fill="none" xmlns="http://www.w3.org/2000/svg">
<path fill-rule="evenodd" clip-rule="evenodd" d="M65.9041 11.3499C58.7456 4.43599 49.1579 0.610268 39.2061 0.696747C29.2542 0.783226 19.7345 4.77499 12.6972 11.8123C5.6599 18.8496 1.66805 28.3693 1.58157 38.3211C1.49509 48.273 5.32101 57.8607 12.2349 65.0192L133.491 265.918L12.2349 466.818C8.60979 470.319 5.7181 474.507 3.72889 479.138C1.73967 483.769 0.692688 488.749 0.648894 493.789C0.6051 498.829 1.56539 503.827 3.47383 508.491C5.38228 513.156 8.20058 517.394 11.7643 520.958C15.3281 524.521 19.566 527.34 24.2306 529.248C28.8952 531.156 33.8932 532.117 38.9329 532.073C43.9726 532.029 48.9532 530.982 53.5839 528.993C58.2146 527.004 62.4028 524.112 65.9041 520.487L266.336 384.999L467.703 520.487C474.861 527.401 484.449 531.227 494.401 531.14C504.352 531.054 513.872 527.062 520.909 520.025C527.947 512.987 531.939 503.468 532.025 493.516C532.112 483.564 528.286 473.976 521.372 466.818L399.18 265.918L521.372 65.0192C528.286 57.8607 532.112 48.273 532.025 38.3211C531.939 28.3693 527.947 18.8496 520.909 11.8123C513.872 4.77499 504.352 0.783226 494.401 0.696747C484.449 0.610268 474.861 4.43599 467.703 11.3499L266.336 119.31L65.9041 11.3499Z" fill="#FDFEFF"/>
</svg>
