<svg width="70" height="70" viewBox="0 0 70 70" fill="none" xmlns="http://www.w3.org/2000/svg">
<g filter="url(#filter0_d_116_114)">
<circle cx="35" cy="35" r="27" fill="#212222"/>
</g>
<path fill-rule="evenodd" clip-rule="evenodd" d="M29.3205 20.0278C25.5225 21.9204 22.6318 25.2442 21.2845 29.2681C19.9371 33.292 20.2434 37.6863 22.136 41.4843C24.0286 45.2824 27.3525 48.173 31.3763 49.5204C35.4002 50.8677 39.7945 50.5614 43.5926 48.6688L43.6008 48.6647C45.46 47.7217 47.1195 46.4282 48.488 44.8555C48.6279 44.6949 48.7201 44.4984 48.7543 44.2882C48.7885 44.078 48.7633 43.8625 48.6815 43.6658C48.5997 43.4692 48.4646 43.2993 48.2914 43.1754C48.1182 43.0514 47.9139 42.9783 47.7014 42.9644C45.129 42.7937 42.6453 41.9565 40.4944 40.5352C38.3435 39.114 36.5994 37.1574 35.4337 34.858C34.2967 32.5511 33.7781 29.9886 33.9285 27.4212C34.0789 24.8538 34.8932 22.3694 36.2917 20.211C36.4075 20.0327 36.4713 19.8257 36.4759 19.6132C36.4806 19.4006 36.4258 19.191 36.3179 19.0079C36.2099 18.8248 36.053 18.6754 35.8648 18.5765C35.6766 18.4777 35.4645 18.4333 35.2525 18.4483C33.1971 18.5912 31.1879 19.1252 29.3328 20.0217L29.3205 20.0278Z" fill="#FDFEFF"/>
<defs>
<filter id="filter0_d_116_114" x="0" y="0" width="70" height="70" filterUnits="userSpaceOnUse" color-interpolation-filters="sRGB">
<feFlood flood-opacity="0" result="BackgroundImageFix"/>
<feColorMatrix in="SourceAlpha" type="matrix" values="0 0 0 0 0 0 0 0 0 0 0 0 0 0 0 0 0 0 127 0" result="hardAlpha"/>
<feOffset/>
<feGaussianBlur stdDeviation="4"/>
<feComposite in2="hardAlpha" operator="out"/>
<feColorMatrix type="matrix" values="0 0 0 0 0 0 0 0 0 0 0 0 0 0 0 0 0 0 0.35 0"/>
<feBlend mode="normal" in2="BackgroundImageFix" result="effect1_dropShadow_116_114"/>
<feBlend mode="normal" in="SourceGraphic" in2="effect1_dropShadow_116_114" result="shape"/>
</filter>
</defs>
</svg>
