<svg width="70" height="70" viewBox="0 0 70 70" fill="none" xmlns="http://www.w3.org/2000/svg">
<g filter="url(#filter0_d_116_96)">
<circle cx="35" cy="35" r="27" fill="#212222"/>
</g>
<path fill-rule="evenodd" clip-rule="evenodd" d="M39.2171 24.6668C39.2314 24.0047 39.0623 23.3515 38.7283 22.7796C38.3944 22.2077 37.9088 21.7393 37.3251 21.4262C36.7415 21.1132 36.0826 20.9678 35.4215 21.006C34.7603 21.0442 34.1226 21.2646 33.5789 21.6428L33.5715 21.6478L24.0157 28.3574H20.7029C18.6786 28.3574 17 30.036 17 32.0602V36.9973C17 39.0216 18.6786 40.7002 20.7029 40.7002H24.0083L33.3395 47.4048L33.3567 47.4172C35.7513 49.0761 39.1529 47.3579 39.2171 44.4302V24.6668Z" fill="#FDFEFF"/>
<path fill-rule="evenodd" clip-rule="evenodd" d="M42.8947 28.5883C42.7395 28.4384 42.5317 28.3555 42.3159 28.3574C42.1002 28.3592 41.8938 28.4458 41.7412 28.5983C41.5887 28.7509 41.5021 28.9573 41.5003 29.173C41.4984 29.3888 41.5813 29.5966 41.7312 29.7518L44.36 34.1072L41.7312 38.4626C41.6526 38.5385 41.5899 38.6293 41.5468 38.7297C41.5037 38.8301 41.481 38.938 41.48 39.0473C41.4791 39.1566 41.4999 39.2649 41.5413 39.366C41.5827 39.4672 41.6438 39.559 41.721 39.6363C41.7983 39.7136 41.8902 39.7747 41.9913 39.816C42.0924 39.8574 42.2008 39.8782 42.31 39.8773C42.4193 39.8763 42.5273 39.8536 42.6276 39.8105C42.728 39.7674 42.8188 39.7047 42.8947 39.6261L47.24 36.6888L51.6055 39.6261C51.7607 39.776 51.9685 39.8589 52.1843 39.8571C52.4 39.8552 52.6064 39.7686 52.759 39.6161C52.9116 39.4635 52.9981 39.2571 53 39.0414C53.0018 38.8256 52.9189 38.6178 52.769 38.4626L50.12 34.1072L52.769 29.7518C52.9189 29.5966 53.0018 29.3888 53 29.173C52.9981 28.9573 52.9116 28.7509 52.759 28.5983C52.6064 28.4458 52.4 28.3592 52.1843 28.3574C51.9685 28.3555 51.7607 28.4384 51.6055 28.5883L47.24 30.9288L42.8947 28.5883Z" fill="#FDFEFF"/>
<defs>
<filter id="filter0_d_116_96" x="0" y="0" width="70" height="70" filterUnits="userSpaceOnUse" color-interpolation-filters="sRGB">
<feFlood flood-opacity="0" result="BackgroundImageFix"/>
<feColorMatrix in="SourceAlpha" type="matrix" values="0 0 0 0 0 0 0 0 0 0 0 0 0 0 0 0 0 0 127 0" result="hardAlpha"/>
<feOffset/>
<feGaussianBlur stdDeviation="4"/>
<feComposite in2="hardAlpha" operator="out"/>
<feColorMatrix type="matrix" values="0 0 0 0 0 0 0 0 0 0 0 0 0 0 0 0 0 0 0.35 0"/>
<feBlend mode="normal" in2="BackgroundImageFix" result="effect1_dropShadow_116_96"/>
<feBlend mode="normal" in="SourceGraphic" in2="effect1_dropShadow_116_96" result="shape"/>
</filter>
</defs>
</svg>
