<svg width="30" height="30" viewBox="0 0 30 30" fill="none" xmlns="http://www.w3.org/2000/svg">
<path fill-rule="evenodd" clip-rule="evenodd" d="M3.68419 0.601526C3.28004 0.211187 2.73875 -0.00480132 2.1769 8.10054e-05C1.61505 0.00496333 1.07759 0.230326 0.68029 0.627629C0.282987 1.02493 0.057619 1.56239 0.0527367 2.12424C0.0478544 2.68609 0.263854 3.22738 0.654193 3.63152L7.49992 14.9737L0.654193 26.3158C0.449528 26.5135 0.286273 26.7499 0.173968 27.0114C0.0616627 27.2728 0.00255337 27.554 8.09115e-05 27.8385C-0.00239155 28.123 0.0518234 28.4052 0.159568 28.6686C0.267313 28.9319 0.426425 29.1712 0.627624 29.3724C0.828823 29.5736 1.06808 29.7327 1.33143 29.8404C1.59478 29.9482 1.87695 30.0024 2.16148 29.9999C2.446 29.9974 2.72719 29.9383 2.98863 29.826C3.25006 29.7137 3.48652 29.5505 3.68419 29.3458L14.9999 21.6966L26.3685 29.3458C26.7726 29.7362 27.3139 29.9521 27.8758 29.9473C28.4376 29.9424 28.9751 29.717 29.3724 29.3197C29.7697 28.9224 29.995 28.385 29.9999 27.8231C30.0048 27.2613 29.7888 26.72 29.3985 26.3158L22.4999 14.9737L29.3985 3.63152C29.7888 3.22738 30.0048 2.68609 29.9999 2.12424C29.995 1.56239 29.7697 1.02493 29.3724 0.627629C28.9751 0.230326 28.4376 0.00496333 27.8758 8.10054e-05C27.3139 -0.00480132 26.7726 0.211187 26.3685 0.601526L14.9999 6.69661L3.68419 0.601526Z" fill="#FDFEFF"/>
</svg>
