<svg width="70" height="70" viewBox="0 0 70 70" fill="none" xmlns="http://www.w3.org/2000/svg">
<g filter="url(#filter0_d_116_125)">
<circle cx="35" cy="35" r="27" fill="#212222"/>
</g>
<path fill-rule="evenodd" clip-rule="evenodd" d="M35 17.0001C35.5115 17.0001 36.002 17.2032 36.3637 17.5649C36.7254 17.9266 36.9286 18.4171 36.9286 18.9286V22.5569C36.9286 23.0684 36.7254 23.5589 36.3637 23.9206C36.002 24.2823 35.5115 24.4855 35 24.4855C34.4885 24.4855 33.998 24.2823 33.6363 23.9206C33.2746 23.5589 33.0714 23.0684 33.0714 22.5569V18.9286C33.0714 18.4171 33.2746 17.9266 33.6363 17.5649C33.998 17.2032 34.4885 17.0001 35 17.0001ZM40.7857 35.0001C40.7857 36.5345 40.1761 38.0061 39.0911 39.0912C38.0061 40.1762 36.5345 40.7858 35 40.7858C33.4655 40.7858 31.9939 40.1762 30.9089 39.0912C29.8239 38.0061 29.2143 36.5345 29.2143 35.0001C29.2143 33.4656 29.8239 31.994 30.9089 30.9089C31.9939 29.8239 33.4655 29.2143 35 29.2143C36.5345 29.2143 38.0061 29.8239 39.0911 30.9089C40.1761 31.994 40.7857 33.4656 40.7857 35.0001ZM36.9286 47.4406C36.9286 46.9291 36.7254 46.4386 36.3637 46.0769C36.002 45.7153 35.5115 45.5172 35 45.5172C34.4885 45.5172 33.998 45.7153 33.6363 46.0769C33.2746 46.4386 33.0714 46.9291 33.0714 47.4406V51.0715C33.0714 51.583 33.2746 52.0735 33.6363 52.4352C33.998 52.7969 34.4885 53.0001 35 53.0001C35.5115 53.0001 36.002 52.7969 36.3637 52.4352C36.7254 52.0735 36.9286 51.583 36.9286 51.0715V47.4406ZM45.5 35.0001C45.5 34.4886 45.7032 33.998 46.0649 33.6364C46.4265 33.2747 46.9171 33.0715 47.4286 33.0715H51.0714C51.5829 33.0715 52.0735 33.2747 52.4351 33.6364C52.7968 33.998 53 34.4886 53 35.0001C53 35.5116 52.7968 36.0021 52.4351 36.3638C52.0735 36.7254 51.5829 36.9286 51.0714 36.9286H47.4286C46.9171 36.9286 46.4265 36.7254 46.0649 36.3638C45.7032 36.0021 45.5 35.5116 45.5 35.0001ZM18.9286 33.0715C18.4171 33.0715 17.9265 33.2747 17.5649 33.6364C17.2032 33.998 17 34.4886 17 35.0001C17 35.5116 17.2032 36.0021 17.5649 36.3638C17.9265 36.7254 18.4171 36.9286 18.9286 36.9286H22.5714C23.0829 36.9286 23.5735 36.7254 23.9351 36.3638C24.2968 36.0021 24.5 35.5116 24.5 35.0001C24.5 34.4886 24.2968 33.998 23.9351 33.6364C23.5735 33.2747 23.0829 33.0715 22.5714 33.0715H18.9286Z" fill="#FDFEFF"/>
<path d="M23.6358 21.7073C23.1243 21.7073 22.6338 21.9105 22.2721 22.2721C21.9104 22.6338 21.7072 23.1244 21.7072 23.6358C21.7072 24.1473 21.9104 24.6379 22.2721 24.9996L24.8377 27.5651C25.1993 27.9268 25.6899 28.13 26.2014 28.13C26.7129 28.13 27.2034 27.9268 27.5651 27.5651C27.9268 27.2035 28.1299 26.7129 28.1299 26.2014C28.1299 25.6899 27.9268 25.1994 27.5651 24.8377L24.9995 22.2721C24.6378 21.9105 24.1473 21.7073 23.6358 21.7073Z" fill="#FDFEFF"/>
<path d="M43.7968 41.8683C44.3083 41.8683 44.7988 42.0715 45.1605 42.4332L47.7279 45.0006C48.0896 45.3622 48.2928 45.8528 48.2928 46.3643C48.2928 46.8758 48.0896 47.3663 47.7279 47.728C47.3662 48.0897 46.8757 48.2928 46.3642 48.2928C45.8527 48.2928 45.3622 48.0897 45.0005 47.728L42.4331 45.1606C42.0714 44.7989 41.8682 44.3084 41.8682 43.7969C41.8682 43.2854 42.0751 42.7985 42.4367 42.4368C42.7984 42.0751 43.2853 41.8683 43.7968 41.8683Z" fill="#FDFEFF"/>
<path d="M41.8598 26.2117C41.8598 26.7232 42.0629 27.2138 42.4246 27.5754C42.7863 27.9371 43.2768 28.1403 43.7883 28.1403C44.2998 28.1403 44.7904 27.9371 45.152 27.5754L47.7279 24.9996C48.0896 24.6379 48.2928 24.1473 48.2928 23.6358C48.2928 23.1244 48.0896 22.6338 47.7279 22.2721C47.3662 21.9105 46.8757 21.7073 46.3642 21.7073C45.8527 21.7073 45.3622 21.9105 45.0005 22.2721L42.4246 24.848C42.0629 25.2097 41.8598 25.7002 41.8598 26.2117Z" fill="#FDFEFF"/>
<path d="M21.7072 46.3643C21.7072 45.8528 21.9104 45.3622 22.2721 45.0006L24.848 42.4247C25.2096 42.063 25.7002 41.8598 26.2117 41.8598C26.7232 41.8598 27.2137 42.063 27.5754 42.4247C27.9371 42.7864 28.1402 43.2769 28.1402 43.7884C28.1402 44.2999 27.9371 44.7904 27.5754 45.1521L24.9995 47.728C24.6378 48.0897 24.1473 48.2928 23.6358 48.2928C23.1243 48.2928 22.6338 48.0897 22.2721 47.728C21.9104 47.3663 21.7072 46.8758 21.7072 46.3643Z" fill="#FDFEFF"/>
<circle cx="35" cy="35" r="7" fill="#FDFEFF"/>
<defs>
<filter id="filter0_d_116_125" x="0" y="0" width="70" height="70" filterUnits="userSpaceOnUse" color-interpolation-filters="sRGB">
<feFlood flood-opacity="0" result="BackgroundImageFix"/>
<feColorMatrix in="SourceAlpha" type="matrix" values="0 0 0 0 0 0 0 0 0 0 0 0 0 0 0 0 0 0 127 0" result="hardAlpha"/>
<feOffset/>
<feGaussianBlur stdDeviation="4"/>
<feComposite in2="hardAlpha" operator="out"/>
<feColorMatrix type="matrix" values="0 0 0 0 0 0 0 0 0 0 0 0 0 0 0 0 0 0 0.35 0"/>
<feBlend mode="normal" in2="BackgroundImageFix" result="effect1_dropShadow_116_125"/>
<feBlend mode="normal" in="SourceGraphic" in2="effect1_dropShadow_116_125" result="shape"/>
</filter>
</defs>
</svg>
