<?xml version="1.0" encoding="utf-8"?>
<!-- Generator: Adobe Illustrator 27.3.1, SVG Export Plug-In . SVG Version: 6.00 Build 0)  -->
<svg version="1.1" id="Calque_1" xmlns="http://www.w3.org/2000/svg" xmlns:xlink="http://www.w3.org/1999/xlink" x="0px" y="0px"
	 viewBox="0 0 54 54" style="enable-background:new 0 0 54 54;" xml:space="preserve">
<style type="text/css">
	.st0{fill:#212222;}
	.st1{fill-rule:evenodd;clip-rule:evenodd;fill:#FDFEFF;}
</style>
<g>
	<circle class="st0" cx="27" cy="27" r="27"/>
</g>
<path class="st1" d="M21.3,12c-3.8,1.9-6.7,5.2-8,9.2c-1.3,4-1,8.4,0.9,12.2c1.9,3.8,5.2,6.7,9.2,8c4,1.3,8.4,1,12.2-0.9l0,0
	c1.9-0.9,3.5-2.2,4.9-3.8c0.1-0.2,0.2-0.4,0.3-0.6c0-0.2,0-0.4-0.1-0.6c-0.1-0.2-0.2-0.4-0.4-0.5c-0.2-0.1-0.4-0.2-0.6-0.2
	c-2.6-0.2-5.1-1-7.2-2.4c-2.2-1.4-3.9-3.4-5.1-5.7c-1.1-2.3-1.7-4.9-1.5-7.4c0.2-2.6,1-5.1,2.4-7.2c0.1-0.2,0.2-0.4,0.2-0.6
	c0-0.2-0.1-0.4-0.2-0.6c-0.1-0.2-0.3-0.3-0.5-0.4c-0.2-0.1-0.4-0.1-0.6-0.1C25.2,10.6,23.2,11.1,21.3,12L21.3,12z"/>
</svg>
