<svg width="118" height="129" viewBox="0 0 118 129" fill="none" xmlns="http://www.w3.org/2000/svg">
<path fill-rule="evenodd" clip-rule="evenodd" d="M39.1116 44.8873C38.8966 45.3647 38.5339 45.7604 38.0771 46.0162C38.5339 45.7604 38.8966 45.3647 39.1116 44.8873ZM38.0454 85.2116C38.5227 85.4541 38.9072 85.8467 39.1398 86.3289C38.9076 85.8475 38.5222 85.4531 38.0454 85.2116ZM81.3914 86.2411C81.619 85.8123 81.9692 85.461 82.3972 85.2319C81.9699 85.4606 81.6182 85.8128 81.3914 86.2411ZM82.3638 45.9917C81.9571 45.751 81.6288 45.3976 81.4188 44.9742C81.628 45.3971 81.9577 45.7515 82.3638 45.9917Z" fill="#FFB8CE"/>
<path d="M57.9851 2.99746L55.1851 9.21207L39.1116 44.8873C38.8966 45.3647 38.5339 45.7604 38.0771 46.0162L3.71759 65.2575C2.69339 65.8311 2.7242 67.3155 3.77133 67.846L38.0427 85.2102L38.0454 85.2116C38.5222 85.4531 38.9076 85.8475 39.1398 86.3289L58.0005 125.43C58.523 126.514 60.0555 126.542 60.6182 125.479L81.3901 86.2435L81.3914 86.2411C81.6182 85.8128 81.9699 85.4606 82.3972 85.2319L114.908 67.8316C115.916 67.2921 115.947 65.8578 114.963 65.2757L82.3642 45.992L82.3638 45.9917C81.9577 45.7515 81.628 45.3971 81.4188 44.9742L81.4174 44.9714L63.7342 9.21207L60.6375 2.94981C60.0882 1.83893 58.4942 1.86757 57.9851 2.99746Z" fill="#FFB8CE"/>
<path fill-rule="evenodd" clip-rule="evenodd" d="M39.4554 44.1242C39.0163 45.0967 38.2773 45.903 37.3467 46.4251L38.7805 45.6222L39.4554 44.1242ZM61.9323 5.56799C60.8663 3.41231 57.7731 3.46789 56.7852 5.66047C56.9687 2.0763 59.6563 -3.3728 59.3816 5.66047L59.3212 63.8547L59.2608 122.049C59.2608 127.544 59.9943 123.389 59.9943 123.389V124.612C61.0619 126.825 60.8843 124.977 62.0341 122.805L62.4343 122.049L81.0259 86.9313C81.4909 86.053 82.2073 85.3333 83.0835 84.8644L111.211 69.8102L112.512 69.1139C114.572 68.0115 114.634 65.0812 112.624 63.8918L111.211 63.0561L83.0161 46.3775C82.1829 45.8846 81.5108 45.1602 81.0817 44.2924L61.978 5.66047L61.9323 5.56799ZM39.5146 87.1058L39.1398 86.3288C38.9067 85.8456 38.5212 85.4525 38.0427 85.21L37.2752 84.8211C38.2519 85.3166 39.0388 86.1193 39.5146 87.1058ZM6.31162 69.1329C4.1954 67.1049 4.15868 65.9392 6.31162 63.8047L6.20226 63.866C4.11824 65.033 4.18095 68.0534 6.31162 69.1329Z" fill="#FFFFFC"/>
<path d="M59.3816 5.66047C59.6563 -3.3728 56.9687 2.0763 56.7852 5.66047L39.4571 44.1205L39.4554 44.1242L38.7805 45.6222L59.3212 63.8547L59.3816 5.66047Z" fill="#FFFFFC"/>
<path fill-rule="evenodd" clip-rule="evenodd" d="M39.4554 44.29C39.0163 45.2625 38.2773 46.0688 37.3467 46.5909L38.7805 45.788L39.4554 44.29ZM61.9323 5.73381C61.6072 3.43108 58.5214 -1.96119 59.0164 1.06521C59.0164 1.06521 59.2022 2.10832 59.3212 2.7767C59.3212 26.6939 59.3212 64.0205 59.3212 64.0205L59.2608 122.215C59.2608 127.709 60.1135 124.044 60.1135 124.044L59.9943 123.8C61.0619 126.013 60.8843 125.142 62.0341 122.971L62.4343 122.215L81.0259 87.0971C81.4909 86.2188 82.2073 85.4991 83.0835 85.0302L111.211 69.976L112.512 69.2797C117.45 68.3002 118.672 66.3443 112.624 64.0577L111.211 63.222L83.0161 46.5433C82.1829 46.0504 81.5108 45.326 81.0817 44.4582L61.978 5.82629L61.9323 5.73381ZM39.5146 87.2716L39.1398 86.4946C38.9067 86.0114 38.5212 85.6183 38.0427 85.3758L37.2752 84.9869C38.2519 85.4824 39.0388 86.2851 39.5146 87.2716ZM6.31162 69.2987C4.1954 67.2707 4.15868 66.105 6.31162 63.9705L6.20226 64.0318C4.11824 65.1988 4.18095 68.2192 6.31162 69.2987Z" fill="#4C9EFF"/>
<path d="M81.0259 87.1102L81.3901 86.4223C81.6177 85.9924 81.9684 85.6402 82.3972 85.4106L83.0835 85.0433L90.7307 80.9505L59.3212 64.0336L78.8303 91.2575L81.0259 87.1102Z" fill="#FFB8CE"/>
<path d="M81.0259 87.1102L81.3901 86.4223C81.6177 85.9924 81.9684 85.6402 82.3972 85.4106L83.0835 85.0433L90.7307 80.9505L59.3212 64.0336L78.8303 91.2575L81.0259 87.1102Z" fill="#FFB8CE"/>
<path d="M59.2609 122.228H62.4343L78.8303 91.2575L59.3212 64.0336L59.2609 122.228Z" fill="#4C73FF"/>
<path d="M81.0259 87.1101L81.3901 86.4222C81.6177 85.9923 81.9684 85.6401 82.3972 85.4105L83.0835 85.0432L90.7307 80.9504L59.3212 64.0335L78.8303 91.2574L81.0259 87.1101Z" fill="#FFB8CE"/>
<path d="M59.2608 122.228V128.222L62.4343 122.228L78.8303 91.2574L59.3212 64.0335L59.2608 122.228Z" fill="#4C73FF"/>
<path d="M38.035 85.3851C38.5183 85.6299 38.9065 86.0283 39.1388 86.5177L41.7776 92.0778L54.186 69.4659L33.2858 82.5869L37.2752 85.0001L38.035 85.3851Z" fill="#FFF7D2"/>
<path d="M57.0734 2.58668L38.1999 44.4765C38.0728 44.7586 37.8585 44.9925 37.5885 45.1437L3.22898 64.385C1.50659 65.3496 1.55842 67.8459 3.31937 68.7381L37.5907 86.1022C37.8735 86.2455 38.1014 86.4778 38.2391 86.7634L57.0998 125.865C57.9785 127.687 60.5557 127.735 61.502 125.947L82.2739 86.7114C82.4084 86.4573 82.6157 86.2492 82.8691 86.1135L115.38 68.7133C117.075 67.806 117.127 65.394 115.472 64.415L82.8734 45.1313C82.6324 44.9887 82.438 44.7792 82.3138 44.5282L61.5339 2.50654C60.6101 0.638401 57.9295 0.68655 57.0734 2.58668Z" stroke="#CFBD93" stroke-width="2"/>
</svg>
