<svg width="1160" height="18" viewBox="0 0 1160 18" fill="none" xmlns="http://www.w3.org/2000/svg">
<path d="M1119.9 8.74194H40.1013C31.5792 10.2903 27.0675 12.871 23.0571 17C19.0468 12.3548 11.026 10.8065 1 8.74194C11.026 7.19355 18.0442 6.16129 23.0571 1C27.0675 6.16129 31.5347 7.05781 40.1013 8.74194H1119.9C1128.47 7.05781 1132.93 6.16129 1136.94 1C1141.9 6.10175 1148.81 7.16918 1158.65 8.68855L1159 8.74194L1158.23 8.90067C1148.56 10.8884 1140.85 12.4746 1136.94 17C1132.93 12.871 1128.42 10.2903 1119.9 8.74194Z" fill="white"/>
<path d="M40.1013 8.74194H1119.9M40.1013 8.74194C31.5347 7.05781 27.0675 6.16129 23.0571 1C18.0442 6.16129 11.026 7.19355 1 8.74194C11.026 10.8065 19.0468 12.3548 23.0571 17C27.0675 12.871 31.5792 10.2903 40.1013 8.74194ZM1119.9 8.74194C1128.47 7.05781 1132.93 6.16129 1136.94 1C1141.96 6.16129 1148.97 7.19355 1159 8.74194C1148.97 10.8065 1140.95 12.3548 1136.94 17C1132.93 12.871 1128.42 10.2903 1119.9 8.74194Z" stroke="white" stroke-width="2" stroke-linejoin="round"/>
</svg>
