<svg width="498" height="18" viewBox="0 0 498 18" fill="none" xmlns="http://www.w3.org/2000/svg">
<path d="M458 8.5H40C31.5 10 27 12.5 23 16.5C19 12 11 10.5 1 8.5C11 7 18 6 23 1C27 6 31.4556 6.8685 40 8.5H458C466.544 6.8685 471 6 475 1C479.942 5.94233 486.839 6.9764 496.655 8.44829L497 8.5L496.231 8.65373C486.59 10.5793 478.897 12.116 475 16.5C471 12.5 466.5 10 458 8.5Z" fill="#212222"/>
<path d="M40 8.5H458M40 8.5C31.4556 6.8685 27 6 23 1C18 6 11 7 1 8.5C11 10.5 19 12 23 16.5C27 12.5 31.5 10 40 8.5ZM458 8.5C466.544 6.8685 471 6 475 1C480 6 487 7 497 8.5C487 10.5 479 12 475 16.5C471 12.5 466.5 10 458 8.5Z" stroke="#212222" stroke-width="2" stroke-linejoin="round"/>
</svg>
