<svg width="82" height="38" viewBox="0 0 82 38" fill="none" xmlns="http://www.w3.org/2000/svg">
<g filter="url(#filter0_d_142_119)">
<path d="M41 9C41 12.5 35 19 31 19C35 19 41 25.5 41 29C41 25.5 47 19 51 19C47 19 41 12.5 41 9Z" fill="#FDFEFF"/>
<path d="M41 9C41 12.5 35 19 31 19C35 19 41 25.5 41 29C41 25.5 47 19 51 19C47 19 41 12.5 41 9Z" stroke="#FDFEFF" stroke-width="2" stroke-linecap="round" stroke-linejoin="round"/>
</g>
<g filter="url(#filter1_d_142_119)">
<path d="M67 17C67 19.1 63.4 23 61 23C63.4 23 67 26.9 67 29C67 26.9 70.6 23 73 23C70.6 23 67 19.1 67 17Z" fill="#FDFEFF"/>
<path d="M67 17C67 19.1 63.4 23 61 23C63.4 23 67 26.9 67 29C67 26.9 70.6 23 73 23C70.6 23 67 19.1 67 17Z" stroke="#FDFEFF" stroke-width="2" stroke-linecap="round" stroke-linejoin="round"/>
</g>
<g filter="url(#filter2_d_142_119)">
<path d="M15 17C15 19.1 11.4 23 9 23C11.4 23 15 26.9 15 29C15 26.9 18.6 23 21 23C18.6 23 15 19.1 15 17Z" fill="#FDFEFF"/>
<path d="M15 17C15 19.1 11.4 23 9 23C11.4 23 15 26.9 15 29C15 26.9 18.6 23 21 23C18.6 23 15 19.1 15 17Z" stroke="#FDFEFF" stroke-width="2" stroke-linecap="round" stroke-linejoin="round"/>
</g>
<defs>
<filter id="filter0_d_142_119" x="22" y="0" width="38" height="38" filterUnits="userSpaceOnUse" color-interpolation-filters="sRGB">
<feFlood flood-opacity="0" result="BackgroundImageFix"/>
<feColorMatrix in="SourceAlpha" type="matrix" values="0 0 0 0 0 0 0 0 0 0 0 0 0 0 0 0 0 0 127 0" result="hardAlpha"/>
<feOffset/>
<feGaussianBlur stdDeviation="4"/>
<feComposite in2="hardAlpha" operator="out"/>
<feColorMatrix type="matrix" values="0 0 0 0 0 0 0 0 0 0 0 0 0 0 0 0 0 0 0.35 0"/>
<feBlend mode="normal" in2="BackgroundImageFix" result="effect1_dropShadow_142_119"/>
<feBlend mode="normal" in="SourceGraphic" in2="effect1_dropShadow_142_119" result="shape"/>
</filter>
<filter id="filter1_d_142_119" x="52" y="8" width="30" height="30" filterUnits="userSpaceOnUse" color-interpolation-filters="sRGB">
<feFlood flood-opacity="0" result="BackgroundImageFix"/>
<feColorMatrix in="SourceAlpha" type="matrix" values="0 0 0 0 0 0 0 0 0 0 0 0 0 0 0 0 0 0 127 0" result="hardAlpha"/>
<feOffset/>
<feGaussianBlur stdDeviation="4"/>
<feComposite in2="hardAlpha" operator="out"/>
<feColorMatrix type="matrix" values="0 0 0 0 0 0 0 0 0 0 0 0 0 0 0 0 0 0 0.35 0"/>
<feBlend mode="normal" in2="BackgroundImageFix" result="effect1_dropShadow_142_119"/>
<feBlend mode="normal" in="SourceGraphic" in2="effect1_dropShadow_142_119" result="shape"/>
</filter>
<filter id="filter2_d_142_119" x="0" y="8" width="30" height="30" filterUnits="userSpaceOnUse" color-interpolation-filters="sRGB">
<feFlood flood-opacity="0" result="BackgroundImageFix"/>
<feColorMatrix in="SourceAlpha" type="matrix" values="0 0 0 0 0 0 0 0 0 0 0 0 0 0 0 0 0 0 127 0" result="hardAlpha"/>
<feOffset/>
<feGaussianBlur stdDeviation="4"/>
<feComposite in2="hardAlpha" operator="out"/>
<feColorMatrix type="matrix" values="0 0 0 0 0 0 0 0 0 0 0 0 0 0 0 0 0 0 0.35 0"/>
<feBlend mode="normal" in2="BackgroundImageFix" result="effect1_dropShadow_142_119"/>
<feBlend mode="normal" in="SourceGraphic" in2="effect1_dropShadow_142_119" result="shape"/>
</filter>
</defs>
</svg>
