<?xml version="1.0" encoding="utf-8"?>
<!-- Generator: Adobe Illustrator 27.3.1, SVG Export Plug-In . SVG Version: 6.00 Build 0)  -->
<svg version="1.1" id="Calque_1" xmlns="http://www.w3.org/2000/svg" xmlns:xlink="http://www.w3.org/1999/xlink" x="0px" y="0px"
	 viewBox="0 0 54 54" style="enable-background:new 0 0 54 54;" xml:space="preserve">
<style type="text/css">
	.st0{fill:#FDFEFF;}
	.st1{fill-rule:evenodd;clip-rule:evenodd;fill:#212222;}
	.st2{fill:#212222;}
</style>
<g>
	<circle class="st0" cx="27" cy="27" r="27"/>
</g>
<path class="st1" d="M27,9c0.5,0,1,0.2,1.4,0.6c0.4,0.4,0.6,0.9,0.6,1.4v3.6c0,0.5-0.2,1-0.6,1.4c-0.4,0.4-0.9,0.6-1.4,0.6
	s-1-0.2-1.4-0.6c-0.4-0.4-0.6-0.9-0.6-1.4v-3.6c0-0.5,0.2-1,0.6-1.4C26,9.2,26.5,9,27,9z M32.8,27c0,1.5-0.6,3-1.7,4.1
	c-1.1,1.1-2.6,1.7-4.1,1.7s-3-0.6-4.1-1.7c-1.1-1.1-1.7-2.6-1.7-4.1s0.6-3,1.7-4.1c1.1-1.1,2.6-1.7,4.1-1.7s3,0.6,4.1,1.7
	C32.2,24,32.8,25.5,32.8,27z M28.9,39.4c0-0.5-0.2-1-0.6-1.4c-0.4-0.4-0.9-0.6-1.4-0.6s-1,0.2-1.4,0.6c-0.4,0.4-0.6,0.9-0.6,1.4v3.6
	c0,0.5,0.2,1,0.6,1.4C26,44.8,26.5,45,27,45s1-0.2,1.4-0.6c0.4-0.4,0.6-0.9,0.6-1.4V39.4z M37.5,27c0-0.5,0.2-1,0.6-1.4
	c0.4-0.4,0.9-0.6,1.4-0.6h3.6c0.5,0,1,0.2,1.4,0.6C44.8,26,45,26.5,45,27s-0.2,1-0.6,1.4c-0.4,0.4-0.9,0.6-1.4,0.6h-3.6
	c-0.5,0-1-0.2-1.4-0.6C37.7,28,37.5,27.5,37.5,27z M10.9,25.1c-0.5,0-1,0.2-1.4,0.6C9.2,26,9,26.5,9,27s0.2,1,0.6,1.4
	c0.4,0.4,0.9,0.6,1.4,0.6h3.6c0.5,0,1-0.2,1.4-0.6c0.4-0.4,0.6-0.9,0.6-1.4s-0.2-1-0.6-1.4c-0.4-0.4-0.9-0.6-1.4-0.6H10.9z"/>
<path class="st2" d="M15.6,13.7c-0.5,0-1,0.2-1.4,0.6s-0.6,0.9-0.6,1.4c0,0.5,0.2,1,0.6,1.4l2.6,2.6c0.4,0.4,0.9,0.6,1.4,0.6
	c0.5,0,1-0.2,1.4-0.6s0.6-0.9,0.6-1.4c0-0.5-0.2-1-0.6-1.4L17,14.3C16.6,13.9,16.1,13.7,15.6,13.7z"/>
<path class="st2" d="M35.8,33.9c0.5,0,1,0.2,1.4,0.6l2.6,2.6c0.4,0.4,0.6,0.9,0.6,1.4s-0.2,1-0.6,1.4c-0.4,0.4-0.9,0.6-1.4,0.6
	s-1-0.2-1.4-0.6l-2.6-2.6c-0.4-0.4-0.6-0.9-0.6-1.4c0-0.5,0.2-1,0.6-1.4C34.8,34.1,35.3,33.9,35.8,33.9z"/>
<path class="st2" d="M33.9,18.2c0,0.5,0.2,1,0.6,1.4c0.4,0.4,0.9,0.6,1.4,0.6s1-0.2,1.4-0.6l2.6-2.6c0.4-0.4,0.6-0.9,0.6-1.4
	c0-0.5-0.2-1-0.6-1.4c-0.4-0.4-0.9-0.6-1.4-0.6s-1,0.2-1.4,0.6l-2.6,2.6C34.1,17.2,33.9,17.7,33.9,18.2z"/>
<path class="st2" d="M13.7,38.4c0-0.5,0.2-1,0.6-1.4l2.6-2.6c0.4-0.4,0.9-0.6,1.4-0.6c0.5,0,1,0.2,1.4,0.6c0.4,0.4,0.6,0.9,0.6,1.4
	s-0.2,1-0.6,1.4L17,39.7c-0.4,0.4-0.9,0.6-1.4,0.6c-0.5,0-1-0.2-1.4-0.6C13.9,39.4,13.7,38.9,13.7,38.4z"/>
<circle class="st2" cx="27" cy="27" r="7"/>
</svg>
