<svg width="70" height="70" viewBox="0 0 70 70" fill="none" xmlns="http://www.w3.org/2000/svg">
<g filter="url(#filter0_d_116_101)">
<circle cx="35" cy="35" r="27" fill="#FDFEFF"/>
</g>
<path fill-rule="evenodd" clip-rule="evenodd" d="M44.1647 23.4952C44.182 22.6964 43.9779 21.9084 43.5751 21.2183C43.1722 20.5283 42.5863 19.9632 41.8822 19.5856C41.178 19.2079 40.3832 19.0324 39.5855 19.0786C38.7878 19.1247 38.0185 19.3906 37.3626 19.8469L37.3536 19.8529L25.825 27.9476H21.8283C19.3862 27.9476 17.361 29.9728 17.361 32.4149V38.3713C17.361 40.8134 19.3862 42.8385 21.8283 42.8385H25.8161L37.0737 50.9273L37.0945 50.9422C39.9834 52.9435 44.0873 50.8707 44.1647 47.3386V23.4952ZM51.3541 29.5022C50.9765 29.0457 50.4331 28.7578 49.8433 28.7019C49.2535 28.6461 48.6657 28.8268 48.2091 29.2044C47.7526 29.5819 47.4647 30.1254 47.4089 30.7152C47.353 31.305 47.5337 31.8928 47.9113 32.3494C48.5903 33.1713 48.9418 34.2197 48.8911 35.2858C48.8878 35.3573 48.8878 35.4288 48.8911 35.5003C48.9418 36.5665 48.5933 37.6148 47.9083 38.4368C47.7214 38.663 47.5808 38.9239 47.4947 39.2045C47.4086 39.485 47.3785 39.7798 47.4063 40.072C47.4341 40.3642 47.5192 40.648 47.6567 40.9073C47.7942 41.1666 47.9814 41.3963 48.2076 41.5832C48.4339 41.7702 48.6947 41.9107 48.9753 41.9969C49.2559 42.083 49.5507 42.113 49.8429 42.0852C50.135 42.0574 50.4189 41.9724 50.6782 41.8349C50.9375 41.6974 51.1671 41.5102 51.3541 41.2839C52.7199 39.6315 53.432 37.5355 53.3554 35.3931C53.432 33.2507 52.7199 31.1546 51.3541 29.5022Z" fill="#212222"/>
<defs>
<filter id="filter0_d_116_101" x="0" y="0" width="70" height="70" filterUnits="userSpaceOnUse" color-interpolation-filters="sRGB">
<feFlood flood-opacity="0" result="BackgroundImageFix"/>
<feColorMatrix in="SourceAlpha" type="matrix" values="0 0 0 0 0 0 0 0 0 0 0 0 0 0 0 0 0 0 127 0" result="hardAlpha"/>
<feOffset/>
<feGaussianBlur stdDeviation="4"/>
<feComposite in2="hardAlpha" operator="out"/>
<feColorMatrix type="matrix" values="0 0 0 0 0 0 0 0 0 0 0 0 0 0 0 0 0 0 0.35 0"/>
<feBlend mode="normal" in2="BackgroundImageFix" result="effect1_dropShadow_116_101"/>
<feBlend mode="normal" in="SourceGraphic" in2="effect1_dropShadow_116_101" result="shape"/>
</filter>
</defs>
</svg>
